# xmcd
#
# Track frame offsets:
#	150
#	15222
#	30170
#	43543
#	58888
#	76730
#	94308
#	113205
#	125542
#	141923
#	157871
#	174167
#	197282
#	213095
#
# Disc length: 3055 seconds
#
# Revision: 1
# Processed by: cddbd v1.5.2PL0 Copyright (c) Steve Scherf et al.
# Submitted via: audiograbber 1.83.01
#
DISCID=a00bed0e
DTITLE=JonesTM - HC200724
DYEAR=2007
DGENRE=Country
TTITLE0=Lisa Shaffer - Just One
TTITLE1=Andy Griggs - Tattoo Rose
TTITLE2=Danielle Peck - Bad For Me
TTITLE3=Amy Dalley - Let's Try Goodbye
TTITLE4=Pat Green - Way Back Texas [Single Edit]
TTITLE5=Tracy Lawrence - Find Out Who Your Friends Are [Acoustic]
TTITLE6=Tim McGraw - If You're Reading This [Live Version (Mastered)]
TTITLE7=Mustang Creek - He'll Never Be A Lawyer (Cause He Can't Pass The Bar) [
TTITLE7=Radio Version]
TTITLE8=Mya - Ridin [Clean]
TTITLE9=Maysa - You Are My Starship
TTITLE10=Rick Braun and Richard Elliot - R n R [Radio Edit]
TTITLE11=Jeff Kashiwa - Forever [Album Version]
TTITLE12=Greg Adams - Felix The Cat [Radio Edit]
TTITLE13=Greg Adams - Cool To The Touch
EXTD=
EXTT0=
EXTT1=
EXTT2=
EXTT3=
EXTT4=
EXTT5=
EXTT6=
EXTT7=
EXTT8=
EXTT9=
EXTT10=
EXTT11=
EXTT12=
EXTT13=
PLAYORDER=
